<?xml version="1.0" encoding="UTF-8" standalone="no"?><!DOCTYPE svg PUBLIC "-//W3C//DTD SVG 1.1//EN" "http://www.w3.org/Graphics/SVG/1.1/DTD/svg11.dtd"><svg width="100%" height="100%" viewBox="0 0 3334 3334" version="1.1" xmlns="http://www.w3.org/2000/svg" xmlns:xlink="http://www.w3.org/1999/xlink" xml:space="preserve" xmlns:serif="http://www.serif.com/" style="fill-rule:evenodd;clip-rule:evenodd;stroke-linecap:round;stroke-linejoin:round;stroke-miterlimit:1.5;"><path d="M414.622,523.587l0,2561.32c0,106.7 86.498,193.197 193.204,193.197l275.149,-0l0,-2754.51l-468.353,0Z" style="fill:#697479;fill-rule:nonzero;"/><path d="M882.975,523.587l0,2754.51l1705.72,-0c106.706,-0 193.204,-86.497 193.204,-193.197l-0,-2561.32l-1898.92,0Z" style="fill:#b7bdbf;fill-rule:nonzero;"/><path d="M1832.43,1711.55c109.419,-210.884 328.256,-210.884 437.675,-105.442c109.423,105.442 109.423,316.326 0,527.21c-76.594,158.163 -273.547,316.326 -437.675,421.768c-164.128,-105.442 -361.081,-263.605 -437.675,-421.768c-109.419,-210.884 -109.419,-421.768 0,-527.21c109.419,-105.442 328.256,-105.442 437.675,105.442Z" style="fill:#00bcd4;stroke:#000;stroke-width:92.86px;"/><path d="M2781.89,1152.03l-341.126,0l-455.625,673.268c-91.315,134.935 -91.315,309.31 -0,444.265l455.625,673.268l341.126,0l0,-1790.8Z" style="fill-opacity:0.1;fill-rule:nonzero;"/><path d="M2558.02,1372.96l-389.903,576.153c-40.182,59.381 -40.182,137.239 0,196.621l389.903,576.152l360.69,0l-0,-1348.93l-360.69,0Z" style="fill:#f4f5f5;fill-rule:nonzero;"/><g><path d="M2781.89,734.18l-1954.9,109.433l-265.3,-320.032l265.3,-320.026l1954.9,109.44l0,421.185Z" style="fill:#b2ebf2;fill-rule:nonzero;"/><path d="M882.975,734.173c-116.12,0 -210.592,-94.466 -210.592,-210.586c-0,-116.12 94.472,-210.592 210.592,-210.592l1898.92,-0l-0,421.178l-1898.92,0Z" style="fill:#f4f5f5;fill-rule:nonzero;"/></g><path d="M882.975,312.995l1898.92,-0l-0,-257.761l-1898.92,0c-258.665,0 -468.346,209.688 -468.346,468.347l-0,0.006c-0,258.659 209.687,468.347 468.346,468.347l1898.92,-0l-0,-257.754l-1898.92,-0c-116.126,-0 -210.592,-94.466 -210.592,-210.593c-0,-116.126 94.466,-210.592 210.592,-210.592Z" style="fill:#b7bdbf;fill-rule:nonzero;"/><circle cx="2454.67" cy="2047.42" r="92.734"/><path d="M2918.71,1317.73l-81.582,-0l-0,-1262.49c-0,-30.514 -24.733,-55.234 -55.234,-55.234l-1473.89,-0c-30.501,-0 -55.234,24.72 -55.234,55.234c-0,30.515 24.733,55.235 55.234,55.235l1418.65,-0l-0,147.291l-1843.68,0c-146.576,0 -265.821,119.245 -265.821,265.834c0,146.569 119.245,265.82 265.821,265.82l1261.85,0c30.501,0 55.234,-24.72 55.234,-55.234c0,-30.515 -24.733,-55.235 -55.234,-55.235l-1261.85,0c-85.664,0 -155.358,-69.687 -155.358,-155.358c-0,-85.67 69.687,-155.364 155.358,-155.364l1843.68,-0l-0,310.709l-360.899,0c-30.501,0 -55.234,24.72 -55.234,55.235c-0,30.514 24.733,55.234 55.234,55.234l360.899,0l-0,147.292l-1843.68,-0c-68.477,-0 -136.595,-17.227 -196.752,-49.929c-128.769,-70.039 -216.36,-206.575 -216.36,-363.183c-0,-227.793 185.319,-413.112 413.112,-413.112l204.179,-0c30.502,-0 55.235,-24.72 55.235,-55.235c-0,-30.514 -24.727,-55.234 -55.228,-55.234l-204.18,-0c-288.711,-0 -523.587,234.883 -523.587,523.587l0,2561.32c0,136.986 111.445,248.431 248.438,248.431l1980.87,0c136.986,0 248.438,-111.445 248.438,-248.431l-0,-307.78l81.582,0c30.501,0 55.234,-24.72 55.234,-55.234l0,-1348.93c0,-30.508 -24.733,-55.234 -55.234,-55.234Zm-192.057,1767.17c-0,76.075 -61.895,137.963 -137.969,137.963l-1650.48,-0l0,-279.668c0,-30.515 -24.733,-55.235 -55.234,-55.235c-30.502,0 -55.235,24.72 -55.235,55.235l0,279.668l-219.908,-0c-76.075,-0 -137.969,-61.882 -137.969,-137.963l-0,-2239.97c1.452,1.862 3.014,3.633 4.485,5.469c84.506,105.436 209.18,175.918 343.379,192.559c3.347,0.416 6.647,0.963 10.013,1.315l0,1678c0,30.514 24.733,55.234 55.235,55.234c30.501,-0 55.234,-24.72 55.234,-55.234l0,-1675.1l1788.45,-0l-0,270.56l-168.633,-0c-18.334,-0 -35.469,9.095 -45.742,24.284l-389.903,576.152c-53.138,78.522 -53.138,180 0,258.522l389.903,576.153c10.273,15.188 27.408,24.283 45.742,24.283l168.633,0l-0,307.78Zm136.823,-418.242l-276.14,0l-373.47,-551.875c-27.682,-40.924 -27.689,-93.795 0,-134.713l373.47,-551.875l276.14,-0l-0,1238.46Z" style="fill-rule:nonzero;"/></svg>